<?xml version="1.0" standalone="no"?>
<svg xmlns:xlink="http://www.w3.org/1999/xlink" id="wave" style="transform:rotate(0deg); transition: 0.3s" viewBox="0 0 1440 490" version="1.1" xmlns="http://www.w3.org/2000/svg"><defs><linearGradient id="sw-gradient-0" x1="0" x2="0" y1="1" y2="0"><stop stop-color="rgba(50, 37, 41, 1)" offset="0%"/><stop stop-color="rgba(255, 113.918, 11, 1)" offset="100%"/></linearGradient></defs><path style="transform:translate(0, 0px); opacity:1" fill="url(#sw-gradient-0)" d="M0,441L160,0L320,98L480,343L640,392L800,196L960,294L1120,343L1280,49L1440,294L1600,98L1760,196L1920,196L2080,98L2240,0L2400,49L2560,196L2720,147L2880,0L3040,294L3200,294L3360,343L3520,245L3680,245L3840,147L3840,490L3680,490L3520,490L3360,490L3200,490L3040,490L2880,490L2720,490L2560,490L2400,490L2240,490L2080,490L1920,490L1760,490L1600,490L1440,490L1280,490L1120,490L960,490L800,490L640,490L480,490L320,490L160,490L0,490Z"/></svg>